<?xml version="1.0" encoding="UTF-8" standalone="no"?>
<svg
   xmlns:dc="http://purl.org/dc/elements/1.1/"
   xmlns:cc="http://creativecommons.org/ns#"
   xmlns:rdf="http://www.w3.org/1999/02/22-rdf-syntax-ns#"
   xmlns:svg="http://www.w3.org/2000/svg"
   xmlns="http://www.w3.org/2000/svg"
   xmlns:sodipodi="http://sodipodi.sourceforge.net/DTD/sodipodi-0.dtd"
   xmlns:inkscape="http://www.inkscape.org/namespaces/inkscape"
   width="480"
   height="480"
   viewBox="0 0 511.92835 511.92835"
   id="svg2"
   version="1.1"
   inkscape:version="0.48.4 r9939"
   sodipodi:docname="Qonsole.svg">
  <metadata
     id="metadata9">
    <rdf:RDF>
      <cc:Work
         rdf:about="">
        <dc:format>image/svg+xml</dc:format>
        <dc:type
           rdf:resource="http://purl.org/dc/dcmitype/StillImage" />
        <dc:title></dc:title>
      </cc:Work>
    </rdf:RDF>
  </metadata>
  <defs
     id="defs7" />
  <sodipodi:namedview
     pagecolor="#ffffff"
     bordercolor="#666666"
     borderopacity="1"
     objecttolerance="10"
     gridtolerance="10"
     guidetolerance="10"
     inkscape:pageopacity="0"
     inkscape:pageshadow="2"
     inkscape:window-width="1366"
     inkscape:window-height="716"
     id="namedview5"
     showgrid="false"
     fit-margin-top="0"
     fit-margin-left="0"
     fit-margin-right="0"
     fit-margin-bottom="0"
     inkscape:zoom="0.84333293"
     inkscape:cx="154.8955"
     inkscape:cy="218.24265"
     inkscape:window-x="-8"
     inkscape:window-y="-8"
     inkscape:window-maximized="1"
     inkscape:current-layer="layer1" />
  <g
     inkscape:groupmode="layer"
     id="layer3"
     inkscape:label="bg"
     transform="translate(0,26.533891)"
     style="display:inline"
     sodipodi:insensitive="true">
    <rect
       style="fill:#333333;fill-opacity:1;stroke:none;display:inline"
       id="rect3006"
       width="511.92834"
       height="511.92834"
       x="0"
       y="-26.533882" />
  </g>
  <g
     inkscape:groupmode="layer"
     id="layer1"
     inkscape:label="logo"
     style="display:inline"
     transform="translate(0,26.533891)">
    <path
       inkscape:connector-curvature="0"
       id="Selection"
       d="m 251.12519,377.86823 c -3.73184,-1.59459 -17.07287,-0.0918 -20.79633,1.57789 0,0 -13.78358,9.44231 -13.78358,9.44231 -3.44799,1.01015 -8.88291,-0.30066 -12.48115,-0.84325 0,0 -30.1385,-4.92564 -30.1385,-4.92564 -6.42004,-2.73 -5.40988,-10.71962 -12.14722,-14.56832 0,0 -18.69251,-8.02303 -18.69251,-8.02303 C 129.50273,353.90774 111.11075,342.011 100.44123,331.37489 91.024014,321.99103 82.859085,314.31035 74.794327,303.59073 52.094485,273.37716 41.39159,239.582 39.362867,202.10513 c -1.093673,-20.06169 1.911831,-38.91283 7.171449,-58.2148 1.552842,-5.71044 3.932194,-16.13786 8.824474,-19.56078 -4.783751,12.49785 -7.563834,29.72103 -8.690906,43.07043 -1.177151,13.85033 0.158654,27.77582 2.688254,41.40908 17.072895,92.16022 111.896352,149.08098 201.744032,122.94985 17.05615,-4.96739 40.99161,-15.59522 53.88186,-27.9344 0,0 -33.3944,-33.39443 -33.3944,-33.39443 0,0 -6.23639,-7.12138 -6.23639,-7.12138 0,0 -17.97456,-42.13536 -17.97456,-42.13536 0,0 1.66971,-1.66971 1.66971,-1.66971 0,0 38.29504,16.80571 38.29504,16.80571 0,0 5.84404,5.844 5.84404,5.844 0,0 37.56868,37.56872 37.56868,37.56872 17.64894,-25.34633 28.03463,-42.42758 33.46957,-73.60961 C 376.37093,136.52686 341.66576,64.787288 277.69046,33.905826 255.13255,23.019275 229.07654,16.999908 203.99731,17.500823 c 0,0 -35.09752,3.306058 -35.09752,3.306058 15.77052,-7.27164 42.90349,-9.041545 60.17675,-8.415365 67.43166,2.412716 127.70021,42.41087 157.9973,102.479054 0,0 9.60924,22.11547 9.60924,22.11547 3.6984,4.73367 10.31887,3.32271 13.2409,8.46547 1.83667,3.22257 3.84036,20.72123 4.53325,25.52169 1.10204,7.73077 4.90898,17.9662 -0.96844,24.3111 0,0 -5.00076,5.0008 -5.00076,5.0008 -3.48976,3.92387 -5.32643,17.63228 -4.00736,22.69155 0.89327,3.44793 4.92567,7.38013 5.84402,10.13518 1.15211,3.43964 -0.95172,8.68253 -2.03707,12.05539 0,0 -7.07957,21.30562 -7.07957,21.30562 -0.91837,2.83853 -2.89701,10.31054 -4.29957,12.39769 -3.44795,5.10099 -10.0517,3.07228 -14.74362,6.96273 -2.19568,1.81164 -5.0676,7.28832 -6.77071,9.92649 0,0 -11.97191,16.41334 -11.97191,16.41334 0,0 55.93563,55.93563 55.93563,55.93563 8.32355,8.35699 22.82509,30.90656 30.05497,41.743 0,0 14.9607,21.77316 14.9607,21.77316 2.93873,4.2077 7.37182,10.04341 8.41538,14.96073 0,0 -31.39072,-20.3706 -31.39072,-20.3706 -11.31237,-7.53876 -39.63915,-25.64692 -47.92098,-33.89532 0,0 -47.58705,-47.58704 -47.58705,-47.58704 -2.12889,-2.11221 -5.13435,-5.66871 -8.34862,-5.67706 -2.64646,-0.009 -4.91734,2.27919 -6.91264,3.77357 -3.84869,2.89698 -16.73891,10.62779 -18.48379,13.2409 -3.23926,4.87557 -1.6363,11.03686 -7.33841,14.36795 0,0 -43.23741,15.20277 -43.23741,15.20277 0,0 -10.44411,-7.77255 -10.44411,-7.77255 z"
       style="fill:#00ff00;stroke:none" />
  </g>
</svg>
